<svg xmlns="http://www.w3.org/2000/svg" width="40.311" height="40.005" viewBox="0 0 40.311 40.005">
  <path id="Address_Icon" data-name="Address Icon" d="M1033.287,1039.775l-11.272-11.272a4,4,0,0,0-5.881,0l-.49.49a4.141,4.141,0,0,0,0,5.881l-9.8,9.8a10.141,10.141,0,0,0-11.272,1.96,1.184,1.184,0,0,0,0,1.715l8.331,8.332-7.351,7.351a1.184,1.184,0,0,0,0,1.716c.245.245.49.245.981.245s.735,0,.98-.245l7.229-7.23,8.454,8.454c.245,0,.735.245.98.245h.98a10.141,10.141,0,0,0,1.96-11.273l9.8-9.8a4,4,0,0,0,5.881,0l.49-.49a4.141,4.141,0,0,0,0-5.881Zm-1.715,3.921-.49.49a1.632,1.632,0,0,1-2.451,0l-.98-.98a1.184,1.184,0,0,0-1.716,0l-11.518,11.518a1.155,1.155,0,0,0-.245,1.47,7,7,0,0,1-.245,8.086l-16.664-16.663a7,7,0,0,1,8.086-.246,1.153,1.153,0,0,0,1.47-.245l11.518-11.518a1.183,1.183,0,0,0,0-1.715l-.98-.981a1.776,1.776,0,0,1,0-2.451l.49-.49a1.632,1.632,0,0,1,2.451,0l11.273,11.272a1.778,1.778,0,0,1,0,2.451Zm0,0" transform="translate(-994.202 -1027.216)" fill="#9398ab"/>
</svg>
