<svg xmlns="http://www.w3.org/2000/svg" width="42.674" height="39.994" viewBox="0 0 42.674 39.994">
  <path id="Date_Icon" data-name="Date Icon" d="M999.331,985a6.6,6.6,0,0,1-6.668-6.666v-24a6.6,6.6,0,0,1,6.668-6.665h5.334v-1.334a1.333,1.333,0,0,1,2.667,0v1.334h13.335v-1.334a1.333,1.333,0,0,1,2.667,0v1.334h5.335a6.6,6.6,0,0,1,6.667,6.665v24a6.6,6.6,0,0,1-6.667,6.666Zm-4-6.666a4.1,4.1,0,0,0,4,4h29.338a4.1,4.1,0,0,0,4-4V961H995.331Zm0-24v4h37.339v-4a4.1,4.1,0,0,0-4-4h-5.334v1.333a1.333,1.333,0,0,1-2.667,0v-1.333h-13.336v1.333a1.333,1.333,0,0,1-2.667,0v-1.333h-5.334A4.1,4.1,0,0,0,995.331,954.335Zm28.8,23.2a2.881,2.881,0,0,1-.8-1.866,2.423,2.423,0,0,1,.8-1.867,2.58,2.58,0,0,1,3.735,0,2.576,2.576,0,0,1,0,3.732,2.58,2.58,0,0,1-3.735,0Zm-8,0a2.576,2.576,0,0,1,0-3.732,2.579,2.579,0,0,1,3.734,0,2.64,2.64,0,1,1-3.734,3.732Zm-8,0a2.576,2.576,0,0,1,0-3.732,2.579,2.579,0,0,1,3.734,0,2.576,2.576,0,0,1,0,3.732,2.578,2.578,0,0,1-3.734,0Zm-8,0a2.876,2.876,0,0,1-.8-1.866,2.42,2.42,0,0,1,.8-1.867,2.579,2.579,0,0,1,3.734,0,2.576,2.576,0,0,1,0,3.732,2.578,2.578,0,0,1-3.734,0Zm24-8a2.576,2.576,0,0,1,0-3.732,2.579,2.579,0,0,1,3.735,0,2.88,2.88,0,0,1,.8,1.866,2.641,2.641,0,0,1-4.535,1.867Zm-8,0a2.576,2.576,0,0,1,0-3.732,2.578,2.578,0,0,1,3.734,0,2.875,2.875,0,0,1,.8,1.866,2.641,2.641,0,0,1-4.534,1.867Zm-8,0a2.576,2.576,0,0,1,0-3.732,2.578,2.578,0,0,1,3.734,0,2.576,2.576,0,0,1,0,3.732,2.578,2.578,0,0,1-3.734,0Zm-8,0a2.576,2.576,0,0,1,0-3.732,2.577,2.577,0,0,1,3.734,0,2.576,2.576,0,0,1,0,3.732,2.578,2.578,0,0,1-3.734,0Z" transform="translate(-992.663 -945.003)" fill="#9398ab"/>
</svg>
