<svg xmlns="http://www.w3.org/2000/svg" width="54" height="52" viewBox="0 0 54 52">
  <path id="Save_Icon" data-name="Save Icon" d="M97.927,117.651a1.509,1.509,0,0,0-1.208-1.028l-16.847-2.415-7.581-15.37a1.488,1.488,0,0,0-2.682.011l-7.481,15.415L45.281,116.79a1.5,1.5,0,0,0-.82,2.571L56.686,131.31,53.86,148.234a1.494,1.494,0,0,0,.6,1.475,1.468,1.468,0,0,0,.876.291,1.41,1.41,0,0,0,.7-.179l15.04-8.037,15.084,7.948a1.5,1.5,0,0,0,2.184-1.341,1.183,1.183,0,0,0-.044-.347l-2.915-16.823L97.528,119.2a1.487,1.487,0,0,0,.4-1.554ZM82.743,129.622a1.5,1.5,0,0,0-.422,1.342l2.538,14.677-13.1-6.9a1.5,1.5,0,0,0-1.4,0l-13.056,6.975,2.449-14.7a1.516,1.516,0,0,0-.432-1.33l-10.6-10.374,14.619-2.191a1.486,1.486,0,0,0,1.119-.827l6.495-13.38,6.584,13.347a1.522,1.522,0,0,0,1.13.827l14.63,2.1Zm0,0" transform="translate(-44.001 -98)" fill="#fff"/>
</svg>
