<svg xmlns="http://www.w3.org/2000/svg" width="51" height="53" viewBox="0 0 51 53">
  <path id="Share_Icon" data-name="Share Icon" d="M195.753,131.476a10.24,10.24,0,0,0-8.477,4.505l-12.963-7.189a10.19,10.19,0,0,0,.058-9.41l9.84-4.287a10.36,10.36,0,1,0-1.267-2.515l-10.221,4.454a10.261,10.261,0,1,0-.063,14.058l13.374,7.418a10.241,10.241,0,1,0,9.719-7.032Zm-3.123-29.664a7.449,7.449,0,1,1-7.438,7.449,7.452,7.452,0,0,1,7.438-7.449Zm-27.384,29.664a7.449,7.449,0,1,1,7.438-7.449,7.452,7.452,0,0,1-7.438,7.449Zm30.506,17.71a7.449,7.449,0,1,1,7.439-7.448,7.452,7.452,0,0,1-7.439,7.448Zm0,0" transform="translate(-155 -99)" fill="#fff"/>
</svg>
